<svg width="28" height="28" viewBox="0 0 28 28" fill="none" xmlns="http://www.w3.org/2000/svg">
<path d="M4.66669 4.66667H6.56326C7.22519 4.66667 7.55616 4.66667 7.81918 4.81172C7.92765 4.87154 8.0259 4.94825 8.11024 5.03898C8.31476 5.25897 8.39503 5.58005 8.55558 6.22222L8.76744 7.06967C8.88536 7.54135 8.94432 7.7772 9.03532 7.97505C9.35125 8.66191 9.98039 9.15312 10.7234 9.29303C10.9374 9.33333 11.1805 9.33333 11.6667 9.33333V9.33333" stroke="white" stroke-width="2.33333" stroke-linecap="round"/>
<path d="M21 19.8333H8.80939C8.63883 19.8333 8.55356 19.8333 8.48885 19.8261C7.80333 19.7493 7.33372 19.0978 7.47769 18.4232C7.49128 18.3595 7.51824 18.2786 7.57218 18.1168V18.1168C7.63206 17.9371 7.662 17.8473 7.69508 17.7681C8.03374 16.9565 8.7999 16.4043 9.67689 16.3396C9.76255 16.3333 9.85723 16.3333 10.0466 16.3333H16.3333" stroke="white" stroke-width="2.33333" stroke-linecap="round" stroke-linejoin="round"/>
<path d="M18.3913 16.3333H11.31C10.1694 16.3333 9.19592 15.5087 9.0084 14.3836L8.5063 11.371C8.32852 10.3043 9.1511 9.33333 10.2325 9.33333H21.4456C22.3129 9.33333 22.877 10.246 22.4891 11.0217L20.4783 15.0435C20.083 15.834 19.2751 16.3333 18.3913 16.3333Z" fill="white" stroke="white" stroke-width="2.33333" stroke-linecap="round"/>
<circle cx="19.8333" cy="23.3333" r="1.16667" fill="white"/>
<circle cx="10.5" cy="23.3333" r="1.16667" fill="white"/>
</svg>
